<svg xmlns="http://www.w3.org/2000/svg" viewBox="0 0 32 32" role="img" aria-label="Forever, Somewhere">
  <defs>
    <linearGradient id="bg" x1="4" y1="2" x2="28" y2="30" gradientUnits="userSpaceOnUse">
      <stop offset="0%" stop-color="#0b1020"/>
      <stop offset="100%" stop-color="#1a0f28"/>
    </linearGradient>
    <linearGradient id="rose" x1="8" y1="8" x2="24" y2="26" gradientUnits="userSpaceOnUse">
      <stop offset="0%" stop-color="#ff8fa3"/>
      <stop offset="100%" stop-color="#ff4d6d"/>
    </linearGradient>
  </defs>
  <rect width="32" height="32" rx="7" fill="url(#bg)"/>
  <path fill="url(#rose)" transform="translate(-2 1) scale(0.52)" d="M34 46c0 0-14-11-14-19 0-5 3.5-8 7-6 2.5 1.5 4.5 4 6 7 1.5-3 3.5-5.5 6-7 3.5-2 7 1 7 6 0 8-14 19-14 19z"/>
  <path fill="url(#rose)" transform="translate(2 1) scale(0.52)" d="M34 46c0 0-14-11-14-19 0-5 3.5-8 7-6 2.5 1.5 4.5 4 6 7 1.5-3 3.5-5.5 6-7 3.5-2 7 1 7 6 0 8-14 19-14 19z"/>
  <circle cx="16" cy="18" r="2.2" fill="#ffd6e0"/>
</svg>
