<svg xmlns="http://www.w3.org/2000/svg" viewBox="0 0 640 160" role="img" aria-label="Forever, Somewhere">
  <defs>
    <linearGradient id="rose" x1="24" y1="16" x2="120" y2="144" gradientUnits="userSpaceOnUse">
      <stop offset="0%" stop-color="#ffc2d1"/>
      <stop offset="50%" stop-color="#ff6b8a"/>
      <stop offset="100%" stop-color="#e83557"/>
    </linearGradient>
    <linearGradient id="text" x1="160" y1="0" x2="640" y2="0" gradientUnits="userSpaceOnUse">
      <stop offset="0%" stop-color="#fff7f9"/>
      <stop offset="100%" stop-color="#ffd6e0"/>
    </linearGradient>
  </defs>

  <rect x="8" y="8" width="144" height="144" rx="32" fill="#0b1020"/>
  <circle cx="80" cy="88" r="52" fill="none" stroke="#ff8fa3" stroke-width="1.5" stroke-opacity="0.35" stroke-dasharray="6 8"/>
  <path fill="url(#rose)" opacity="0.9" transform="translate(28 36) scale(0.62)" d="M84 126c0 0-84-67-84-113 0-27 20-45 41-34 15 9 27 24 36 41 9-17 21-32 36-41 21-11 41 7 41 34 0 46-84 113-84 113z"/>
  <path fill="url(#rose)" transform="translate(52 36) scale(0.62)" d="M84 126c0 0-84-67-84-113 0-27 20-45 41-34 15 9 27 24 36 41 9-17 21-32 36-41 21-11 41 7 41 34 0 46-84 113-84 113z"/>
  <circle cx="80" cy="92" r="10" fill="#ffd6e0"/>
  <path fill="#ffd6e0" d="M132 44l3 9 9 3-9 3-3 9-3-9-9-3 9-3z"/>

  <text x="176" y="98" fill="url(#text)" font-family="Georgia, 'Times New Roman', serif" font-size="52" font-weight="400" letter-spacing="-0.5">Forever, Somewhere</text>
</svg>
